<?xml version="1.0" encoding="UTF-8" standalone="no"?>
<svg xmlns="http://www.w3.org/2000/svg" xml:space="preserve" viewBox="0 0 53.231222 26.889077">
  <path fill="#0d0d0d" d="M14.889225 4.3111C15.816331 3.14893 16.447942 1.59411 16.279104 0c-1.354598.0668-3.011479.89483-3.973421 2.05744-.860327.99388-1.621489 2.61882-1.425272 4.14226 1.527332.13356 3.046872-.76127 4.008814-1.8886"/>
  <path fill="#0d0d0d" d="M16.263078 6.49798c-2.214481-.13356-4.095181 1.25643-5.15128 1.25643-1.059549 0-2.6778106-1.18966-4.4289608-1.15827-2.277252.0334-4.3895615 1.32321-5.5478315 3.37275-2.3794228 4.09507-.62882908 10.17702 1.6843718 13.51437 1.1228775 1.65299 2.4774757 3.47081 4.2600117 3.40403 1.6843718-.0668 2.3479257-1.08737 4.3935678-1.08737 2.049538 0 2.642419 1.08737 4.424955 1.05621 1.853209-.0334 3.007584-1.65299 4.130461-3.30598 1.28782-1.8807 1.817929-3.69851 1.849314-3.80068-.03339-.0334-3.565071-1.38988-3.600464-5.45357-.03339-3.40413 2.775975-5.02184 2.90942-5.12-1.586208-2.34793-4.063683-2.61092-4.923565-2.6777"/>
  <path fill="#0d0d0d" d="M30.358089 3.36518v4.48773h3.608255v2.9644h-3.608255v10.55787c0 1.6334.71898 2.39111 2.29684 2.39111.396218 0 1.043968-.0556 1.295722-.089v2.9801c-.431833.089-1.295722.16138-2.1398.16138-3.73391 0-5.186672-1.43707-5.186672-5.06491V10.81902h-2.768073v-2.9644h2.768073V3.36689Z"/>
  <path fill="#0d0d0d" d="M46.600913 26.67059h-3.96563l-6.662918-18.8149H39.9144l4.676263 15.12028h.08904l4.676263-15.12028h3.875258z"/>
</svg>