<?xml version="1.0" encoding="utf-8"?>
<!-- Generator: Adobe Illustrator 25.4.0, SVG Export Plug-In . SVG Version: 6.00 Build 0)  -->
<svg version="1.1" id="레이어_1" xmlns="http://www.w3.org/2000/svg" xmlns:xlink="http://www.w3.org/1999/xlink" x="0px"
	 y="0px" viewBox="0 0 170.1 188.6" style="enable-background:new 0 0 170.1 188.6;" xml:space="preserve">
<style type="text/css">
	.st0{fill:url(#SVGID_1_);}
	.st1{fill:url(#SVGID_00000103971503511209571870000014997368239878535557_);}
	.st2{fill:url(#SVGID_00000055685204198874167570000002992743342147035063_);}
	.st3{fill-rule:evenodd;clip-rule:evenodd;fill:#945226;}
	.st4{fill-rule:evenodd;clip-rule:evenodd;fill:#FFC500;}
	.st5{fill-rule:evenodd;clip-rule:evenodd;fill:#87CC2E;}
	.st6{fill-rule:evenodd;clip-rule:evenodd;fill:#F7552F;}
	.st7{fill-rule:evenodd;clip-rule:evenodd;fill:#30B5DC;}
</style>
<g>
	<g>
		
			<linearGradient id="SVGID_1_" gradientUnits="userSpaceOnUse" x1="19.244" y1="92.8008" x2="30.4587" y2="73.3764" gradientTransform="matrix(1 0 0 -1 0 189.2756)">
			<stop  offset="0" style="stop-color:#27C0FF"/>
			<stop  offset="1" style="stop-color:#0890FF"/>
		</linearGradient>
		<path class="st0" d="M44.5,100.6c-11.5,1.7-20,0-23-5.2l-19.4,11c5.6,7.1,21.6,7.2,42.5,1.4L44.5,100.6z"/>
		
			<linearGradient id="SVGID_00000003795685859655603030000006620264964356481677_" gradientUnits="userSpaceOnUse" x1="44.073" y1="190.3569" x2="105.8844" y2="83.2965" gradientTransform="matrix(1 0 0 -1 0 189.2756)">
			<stop  offset="0" style="stop-color:#53D2FF"/>
			<stop  offset="1" style="stop-color:#02AFFF"/>
		</linearGradient>
		<path style="fill:url(#SVGID_00000003795685859655603030000006620264964356481677_);" d="M152.4,60.8l-12.2-6.7l0,0l-6.7-3.7l0,0
			l-15.8-8.7L96.4,29.9c20.9-7.4,37.9-8.3,43.1-1.2l19.6-11.1c-6.5-11.5-36.2-7.7-71,7.7L42.2,0L43,37.3c20-5.3,31.8-5.7,31.8-5.7
			l0,0c-2.8,1.5-5.7,3-8.6,4.6c-8.1,4.5-15.7,9.2-22.7,14c-0.1,0-0.1,0.1-0.2,0.1C13,71.4-5,93.9,1.2,105.2c0.2,0.4,0.5,0.8,0.9,1.2
			l19.4-11c0,0,0-0.1-0.1-0.1c-4.4-7.9,4.9-21.9,22.1-35.9l0.4,19.1l0.6,29.1l0,0l0.3,15.4l0.4,16.3l123.4-69.8L152.4,60.8z"/>
		
			<linearGradient id="SVGID_00000087388978527045457530000002063525882478068129_" gradientUnits="userSpaceOnUse" x1="142.3304" y1="162.1733" x2="153.4704" y2="142.8784" gradientTransform="matrix(1 0 0 -1 0 189.2756)">
			<stop  offset="0" style="stop-color:#23BDFF"/>
			<stop  offset="1" style="stop-color:#0890FF"/>
		</linearGradient>
		<path style="fill:url(#SVGID_00000087388978527045457530000002063525882478068129_);" d="M159.1,17.6
			C159.1,17.6,159.1,17.5,159.1,17.6l-19.6,11.1c0.2,0.3,0.4,0.6,0.6,0.9c2.8,5,0.1,12.4-6.6,20.8l6.7,3.7
			C155.9,39.3,163.6,25.6,159.1,17.6z"/>
	</g>
	<path class="st3" d="M35,170.6c0,1.1,0.7,4.8,5.1,4.8s5.1-3.7,5.1-4.8v-7.5c0-1.1-0.7-4.8-5.1-4.8S35,162,35,163.1V170.6z
		 M29.8,163.3c0-0.5,0.1-2.8,1.3-5c1.2-2.1,3.7-4.5,8.9-4.5l0,0h0.1l0,0c5.2,0,7.7,2.4,8.9,4.5c1.3,2.2,1.3,4.5,1.3,5v7.1
		c0,0.5-0.1,2.8-1.3,5c-1.2,2.1-3.7,4.5-8.9,4.5H40c-5.2,0-7.7-2.4-8.9-4.5c-1.3-2.2-1.3-4.5-1.3-5L29.8,163.3L29.8,163.3z
		 M27.8,174.8c0-0.1-0.1-0.3-0.2-0.3l0,0l0,0l0,0l-3.9-1.9l0,0c-0.1,0-0.1,0-0.2,0s-0.3,0.1-0.3,0.2l0,0l0,0l0,0
		c-0.6,1.3-1.9,2.7-4.6,2.7c-4.4,0-5.1-3.7-5.1-4.8v-7.5c0-1.1,0.7-4.8,5.1-4.8c2.7,0,4,1.4,4.6,2.8c0.1,0.1,0.2,0.2,0.3,0.2
		c0.1,0,0.1,0,0.2,0l0,0l3.9-2l0,0c0.1-0.1,0.2-0.2,0.2-0.3s0-0.1,0-0.1c-0.1-0.2-0.1-0.3-0.2-0.4c-1.2-2.1-3.7-4.5-8.9-4.5h-0.1
		c-5.2,0-7.7,2.4-8.9,4.5c-1.3,2.2-1.3,4.5-1.3,5v7.1c0,0.5,0.1,2.8,1.3,5c1.2,2.1,3.7,4.5,8.9,4.5h0.1c5.2,0,7.7-2.4,8.9-4.5
		c0.1-0.2,0.2-0.3,0.2-0.5l0,0C27.7,174.9,27.8,174.8,27.8,174.8 M73.8,179v-24.3c0-0.2-0.2-0.4-0.4-0.4l0,0H69l0,0
		c-0.2,0-0.4,0.2-0.4,0.4l0,0l0,0v8.6l0,0v7.3c0,1.1-0.7,4.8-5.1,4.8s-5.1-3.7-5.1-4.8v-15.9l0,0c0-0.2-0.2-0.4-0.4-0.4l0,0l0,0
		h-4.4l0,0c-0.2,0-0.4,0.2-0.4,0.3l0,0v15.7c0,0.5,0,2.8,1.2,5c1.1,2.1,3.3,4.5,8,4.5h0.1c3.1,0,5.1-1.3,6.4-2.6v1.7l0,0
		c0,0.2,0.2,0.3,0.4,0.3l0,0l0,0h4.1C73.6,179.4,73.8,179.2,73.8,179L73.8,179"/>
	<path class="st4" d="M115.2,171.1c0,1-0.7,4.5-4.9,4.5c-4.3,0-4.9-3.5-4.9-4.5v-0.4c0-1,0.7-4.5,4.9-4.5c4.3,0,4.9,3.5,4.9,4.5
		V171.1L115.2,171.1z M119.9,163.2c0-2-1-6.7-5.5-8.5c-4.6-1.9-10.8,0.4-12.3,1c-0.2,0-0.3,0.2-0.3,0.3s0,0.1,0,0.2l0,0l1.2,3.5l0,0
		c0.1,0.2,0.3,0.3,0.4,0.2l0,0l0,0c1.7-0.9,6.3-2.4,9.1-1.1c2.7,1.2,2.5,4.1,2.5,4.4v0.7c-1.7-1.2-3.7-1.9-5.8-1.9h-0.1
		c-4.7,0-6.9,2.2-8,4.2c-1.1,2.1-1.2,4.3-1.2,4.7l0,0c0,0.4,0.1,2.6,1.2,4.7c1.1,2,3.3,4.2,8,4.2l0,0c2.7,0,4.6-1,5.9-2v1.2l0,0l0,0
		l0,0c0,0.2,0.2,0.3,0.4,0.3l0,0l0,0h3.9l0,0l0,0c0.2,0,0.3-0.2,0.4-0.3v-13.2l0,0v-2.6C119.9,163.3,119.9,163.2,119.9,163.2z"/>
	<path class="st5" d="M143.7,163.4c0-0.5,0-2.8-1.2-5c-1.1-2.1-3.3-4.5-8-4.5l0,0l0,0l0,0l0,0c-3.1,0-5.1,1.2-6.4,2.5v-1.7l0,0l0,0
		c0-0.2-0.2-0.3-0.3-0.4l0,0h-4.1l0,0c-0.2,0-0.3,0.2-0.3,0.4l0,0l0,0V179l0,0c0,0.2,0.2,0.3,0.4,0.3l0,0l0,0h4.4l0,0
		c0.2,0,0.3-0.1,0.4-0.3l0,0v-16.2c0.1-1.3,1-4.5,5.1-4.5c4.4,0,5.1,3.7,5.1,4.8V179l0,0l0,0c0,0.2,0.2,0.4,0.4,0.4h4.4
		c0.2,0,0.3-0.2,0.3-0.4l0,0L143.7,163.4L143.7,163.4z"/>
	<path class="st6" d="M92.4,170.6c0,1.1-0.7,4.8-5.1,4.8s-5.1-3.7-5.1-4.8v-7.5c0-1.1,0.7-4.8,5.1-4.8s5.1,3.7,5.1,4.8V170.6z
		 M96.4,158.4c-1.1-2.1-3.3-4.5-8-4.5h-0.1c-3.1,0-5.1,1.3-6.4,2.6v-1.7l0,0l0,0c0-0.2-0.2-0.4-0.4-0.4l0,0l0,0h-4l0,0l0,0
		c-0.2,0-0.4,0.2-0.4,0.4l0,0l0,0l0,0v33.1l0,0c0,0.2,0.2,0.3,0.4,0.3H82l0,0c0.2,0,0.3-0.2,0.3-0.3l0,0l0,0l0,0l0,0v-10.1
		c1.3,1.2,3.3,2.2,6.1,2.3h0.1c4.6,0,6.9-2.4,8-4.5c1.1-2.2,1.2-4.5,1.2-5v-7.1C97.6,162.9,97.5,160.6,96.4,158.4z"/>
	<path class="st7" d="M162.1,163.2c0,1-0.7,4.5-5.1,4.5c-4.4,0-5.1-3.6-5.1-4.5v-0.3c0-1,0.7-4.5,5.1-4.5c4.4,0,5.1,3.6,5.1,4.5
		V163.2z M169.7,154.1L169.7,154.1c-2.6-0.1-4.3,1-5.4,2.2c-1.5-1.3-3.8-2.3-7.2-2.3l0,0H157l0,0c-5.2,0-7.7,2.3-8.9,4.3
		c-1.3,2.1-1.3,4.3-1.3,4.7v0.2c0,0.4,0.1,2.7,1.3,4.7c0.5,0.9,1.3,1.8,2.5,2.6c-1.9,1.1-3.7,3.1-3.7,6.6v1.9c0,0.2,0.2,0.3,0.3,0.4
		l0,0h15.5l0,0c1.4,0,2.5,1.1,2.5,2.5c0,1.5-1,2.2-2.6,2.8c-0.2,0.1-0.4,0.3-0.2,0.6c0.1,0.2,1.4,2.8,1.5,3s0.3,0.3,0.6,0.2
		c3.1-0.9,5.1-3.4,5.1-6.6c0-3.7-3-6.7-6.7-6.7H152c0.6-3.1,4.2-3,4.6-3l0,0c0.2,0,0.3,0,0.5,0h0.1c5.2,0,7.7-2.3,8.9-4.3
		c1.3-2.1,1.3-4.3,1.3-4.7V163c0-0.4,0-2-0.8-3.8c0.7-0.5,1.7-0.9,3.3-0.8l0,0c0.2,0,0.3-0.2,0.4-0.3v-3.6
		C170.1,154.2,169.9,154.1,169.7,154.1L169.7,154.1z"/>
</g>
</svg>
