<?xml version="1.0" encoding="utf-8"?>
<!-- Generator: Adobe Illustrator 24.0.1, SVG Export Plug-In . SVG Version: 6.00 Build 0)  -->
<svg version="1.1" id="레이어_1" xmlns="http://www.w3.org/2000/svg" xmlns:xlink="http://www.w3.org/1999/xlink" x="0px"
	 y="0px" viewBox="0 0 312.84 62.33" style="enable-background:new 0 0 312.84 62.33;" xml:space="preserve">
<style type="text/css">
	.st0{fill:#022CA4;}
	.st1{fill:#0652DB;}
	.st2{fill:#18B0DF;}
</style>
<g>
	<g>
		<path d="M161.2,11.34c-11.92,0-21.58,9.66-21.58,21.58s9.66,21.58,21.58,21.58c5.7,0,10.89-2.22,14.75-5.83v5.83h6.83V32.92
			C182.78,21,173.12,11.34,161.2,11.34z M161.2,47.66c-8.14,0-14.75-6.6-14.75-14.75c0-8.14,6.6-14.75,14.75-14.75
			c8.14,0,14.75,6.6,14.75,14.75S169.34,47.66,161.2,47.66z"/>
		<path d="M205.87,46.4c-0.09,0.29-0.51,0.29-0.6,0l-11.34-35.06h-6.83l12.57,38.87c0.83,2.56,3.21,4.3,5.9,4.3l0,0
			c2.69,0,5.07-1.73,5.9-4.3l12.57-38.87h-6.83L205.87,46.4z"/>
		<path d="M247.16,46.4c-0.09,0.29-0.51,0.29-0.6,0l-11.34-35.06h-6.83l12.57,38.87c0.83,2.56,3.21,4.3,5.9,4.3l0,0
			c2.69,0,5.07-1.73,5.9-4.3l12.57-38.87h-6.83L247.16,46.4z"/>
		<path d="M118.03,46.4c-0.09,0.29-0.51,0.29-0.6,0l-11.34-35.06h-0.03h-6.8h-0.03L87.89,46.4c-0.09,0.29-0.51,0.29-0.6,0
			L75.96,11.34h-6.83L81.69,50.2c0.83,2.56,3.21,4.3,5.9,4.3l0,0c2.69,0,5.07-1.73,5.9-4.3l8.87-27.42c0.09-0.29,0.51-0.29,0.6,0
			l8.86,27.42c0.83,2.56,3.21,4.3,5.9,4.3l0,0c2.69,0,5.07-1.73,5.9-4.3l12.57-38.87h-6.83L118.03,46.4z"/>
		<path d="M312.84,32.92c0-11.92-9.66-21.58-21.58-21.58c-11.92,0-21.58,9.66-21.58,21.58s9.66,21.58,21.58,21.58
			c8.68,0,16.16-5.13,19.58-12.52h-7.97c-2.69,3.46-6.89,5.68-11.61,5.68c-6.97,0-12.79-4.84-14.33-11.33h35.64
			C312.75,35.22,312.84,34.08,312.84,32.92z M276.93,29.5c1.54-6.49,7.37-11.33,14.33-11.33c6.97,0,12.79,4.84,14.33,11.33H276.93z"
			/>
	</g>
	<g>
		<path class="st0" d="M45.67,24.95L9.14,0.98C5.21-1.6,0,1.22,0,5.91v25.34V48.5v7.92c0,4.69,5.21,7.51,9.14,4.93l11.59-7.61
			l19.66-12.9l5.29-3.47C50.15,34.45,50.15,27.88,45.67,24.95z"/>
		<path class="st1" d="M34.38,41.67c-7.04,0-10.46-2.68-14.09-5.52c-3.55-2.78-7.22-5.65-14.46-5.65c-2.26,0-4.17,0.28-5.84,0.75
			V48.5v7.92c0,4.69,5.21,7.51,9.14,4.93l11.59-7.61l19.66-12.9C38.69,41.36,36.74,41.67,34.38,41.67z"/>
		<path class="st2" d="M5.84,47.76c-2.26,0-4.17,0.28-5.84,0.75v7.92c0,4.69,5.21,7.51,9.14,4.93l11.59-7.61
			c-0.15-0.11-0.29-0.23-0.44-0.34C16.74,50.63,13.07,47.76,5.84,47.76z"/>
	</g>
</g>
</svg>
